HIERARCHY
ROOT pelvis
{
  OFFSET 0 100 0
  CHANNELS 6 Xposition Yposition Zposition Zrotation Xrotation Yrotation
  JOINT pelvis_right_femur
  {
    OFFSET -10.78128 -3.44521 -0.5502486
    CHANNELS 3 Zrotation Xrotation Yrotation
    JOINT right_femur_tibia
    {
      OFFSET -0.8047443 -44.0398 -0.1307829
      CHANNELS 3 Zrotation Xrotation Yrotation
      JOINT right_tibia_foot
      {
        OFFSET 3.006224 -47.83518 -5
        CHANNELS 3 Zrotation Xrotation Yrotation
        End Site
        {
          OFFSET 0 -5 15
        }
      }
    }
  }
  JOINT pelvis_left_femur
  {
    OFFSET 10.78128 -3.44521 -0.5502486
    CHANNELS 3 Zrotation Xrotation Yrotation
    JOINT left_femur_tibia
    {
      OFFSET 0.8047443 -44.0398 -0.1307829
      CHANNELS 3 Zrotation Xrotation Yrotation
      JOINT left_tibia_foot
      {
        OFFSET -4.370144 -48.10324 -4.275266
        CHANNELS 3 Zrotation Xrotation Yrotation
        End Site
        {
          OFFSET 0 -5 15
        }
      }
    }
  }
  JOINT pelvis_spine1
  {
    OFFSET 0 6.468898 -3.129235
    CHANNELS 3 Zrotation Xrotation Yrotation
    JOINT spine1
    {
      OFFSET 0 23.15396 4.99043
      CHANNELS 3 Zrotation Xrotation Yrotation
      JOINT spine2
      {
        OFFSET 0 20.79997 -5.064912
        CHANNELS 3 Zrotation Xrotation Yrotation
        JOINT neck
        {
          OFFSET 0 14.38658 9.616178
          CHANNELS 3 Zrotation Xrotation Yrotation
          End Site
          {
            OFFSET 0 20 0
          }
        }
      }
      JOINT right_manubrium
      {
        OFFSET -5.722621 16.35077 3.967754
        CHANNELS 3 Zrotation Xrotation Yrotation
        JOINT right_clavicle
        {
          OFFSET -13.16364 1.694482 -4.693211
          CHANNELS 3 Zrotation Xrotation Yrotation
          JOINT right_humerus
          {
            OFFSET -28.5034 -0.3100689 -2.792744
            CHANNELS 3 Zrotation Xrotation Yrotation
            JOINT right_radius
            {
              OFFSET -25.15693 0.02248979 -1.271978
              CHANNELS 3 Zrotation Xrotation Yrotation
              End Site
              {
                OFFSET -15 0 0
              }
            }
          }
        }
      }
      JOINT left_manubrium
      {
        OFFSET 5.722621 16.35077 3.967754
        CHANNELS 3 Zrotation Xrotation Yrotation
        JOINT left_clavicle
        {
          OFFSET 13.16364 1.694482 -4.693211
          CHANNELS 3 Zrotation Xrotation Yrotation
          JOINT left_humerus
          {
            OFFSET 29.39168 -1.063119 -2.237045
            CHANNELS 3 Zrotation Xrotation Yrotation
            JOINT left_radius
            {
              OFFSET 24.59957 -0.9528479 0.9047498
              CHANNELS 3 Zrotation Xrotation Yrotation
              End Site
              {
                OFFSET 15 -0 -0
              }
            }
          }
        }
      }
    }
  }
}
MOTION
Frames: 13
Frame Time: 0.0416666666667
-812.9594 117.2097 2562.946 -10.07972 -4.958976 -60.30337 8.536199 6.461042 -1.912114 -0 9.838107 -0 -16.82497 -5.727313 -1.195297 2.788336 -13.56188 -2.258963 -0 35.98156 -0 5.807816 -2.3215 13.57321 0.5264683 -1.762459 6.326467 0.3718285 14.97403 -6.629974 0.07337605 21.62745 5.483897 4.576392 -18.24483 3.690048 -1.506722 -23.7639 12.86001 92.15266 21.90287 -17.75058 -0 0 16.61078 -21.91411 9.691549 7.382178 4.46868 -27.2101 -9.705621 -90.9463 8.791367 24.71147 0 0 -14.12861 13.05068 14.13433 -4.729193
-816.7435 116.7749 2565.959 -9.612574 -4.315252 -60.85991 8.333924 9.148921 -0.9394633 -0 10.10113 -0 -15.51167 -9.144734 -1.802077 4.03842 -16.4264 -1.32275 -0 27.61663 -0 6.10912 -1.366199 13.60386 0.6472829 -1.882924 7.143817 0.4612664 15.33215 -6.549439 -0.1283552 21.22635 4.882671 4.407095 -17.18015 2.841696 -0.9796408 -25.0684 13.13301 90.76299 21.63573 -16.33901 -0 0 19.35385 -21.34425 10.11143 7.783913 3.651002 -26.82258 -10.06321 -92.22664 8.170074 28.39552 0 0 -11.20246 12.05513 13.62983 -2.915206
-820.6429 116.12 2569.221 -9.094727 -3.654823 -61.37769 7.905917 11.30541 -0.03414755 -0 11.21014 -0 -13.97345 -11.92376 -2.234088 4.878533 -17.95597 -0.7846195 -0 19.84504 -0 5.897779 -0.5398039 13.65184 0.7581671 -2.001257 7.835502 0.5786577 15.59511 -6.545133 -0.2786688 20.79253 4.264968 4.20445 -16.20369 2.07858 -0.4476077 -26.18221 13.35058 89.45799 21.34765 -15.1588 -0 0 21.78913 -20.68386 10.54353 8.184977 3.001824 -26.45869 -10.29373 -93.15163 7.646752 31.39546 0 0 -9.148658 11.17788 13.08979 -1.237391
-824.7917 115.4084 2572.768 -8.603242 -3.140027 -61.89104 7.13535 13.18044 0.648965 -0 13.11584 -0 -12.44907 -13.76691 -2.426229 5.058498 -18.33589 -0.9718758 -0 13.71921 -0 4.977556 -0.03909375 13.97572 0.850292 -2.099714 8.356823 0.6933754 15.77463 -6.580598 -0.3795981 20.40525 3.72879 4.012604 -15.42453 1.476635 0.007535326 -27.03185 13.51214 88.39519 21.07857 -14.27131 -0 0 23.70377 -20.08141 10.92644 8.531936 2.531757 -26.15929 -10.42511 -93.75335 7.257855 33.59671 0 0 -7.856763 10.49001 12.61541 0.1210901
-829.2791 114.7771 2576.576 -8.25916 -2.908083 -62.428 6.035297 15.02994 0.9013547 -0 15.62809 -0 -11.27383 -14.35664 -2.274124 4.494158 -17.88531 -2.084072 -0 9.7828 -0 3.293978 -0.1245515 14.75749 0.9007007 -2.165348 8.698104 0.7757055 15.87433 -6.612615 -0.4505707 20.12398 3.36241 3.908522 -14.85868 1.048237 0.381303 -27.56865 13.61855 87.59801 20.91243 -13.66634 -0 0 25.0153 -19.64484 11.19361 8.776598 2.248057 -25.95272 -10.49959 -94.12392 6.993213 35.00758 0 0 -7.049721 10.0385 12.25225 1.038286
-834.1324 114.3263 2580.581 -8.167105 -3.022663 -62.99407 4.724145 16.99569 0.6499779 -0 18.61579 -0 -10.71849 -13.48623 -1.733242 3.307337 -16.92924 -4.054289 -0 8.056825 -0 1.062796 -0.9166382 15.9819 0.8885617 -2.192926 8.882087 0.8098871 15.89488 -6.610534 -0.516066 19.96982 3.207851 3.958407 -14.45167 0.7547596 0.7224907 -27.79019 13.67539 86.98668 20.91924 -13.27992 -0 0 25.77642 -19.40882 11.30256 8.895288 2.142788 -25.84406 -10.5547 -94.36867 6.815797 35.74371 0 0 -6.427019 9.826348 11.98863 1.495584
-839.3219 114.1315 2584.7 -8.366086 -3.46853 -63.56526 3.343211 19.01909 -0.002023363 -0 22.08685 -0 -10.87911 -11.13765 -0.8408135 1.729061 -15.66973 -6.592624 -0 8.187695 -0 -1.311786 -2.330402 17.46417 0.7975815 -2.181791 8.94303 0.7908691 15.83456 -6.556577 -0.5962268 19.93348 3.265523 4.203427 -14.12019 0.5373034 1.105172 -27.72424 13.6887 86.42987 21.1455 -13.01647 -0 0 26.12156 -19.35921 11.24393 8.894651 2.200726 -25.81269 -10.61136 -94.57168 6.686071 35.95809 0 0 -5.742411 9.826568 11.77919 1.544218
-844.7754 114.2558 2588.853 -8.822888 -4.177542 -64.09121 1.997217 20.85169 -0.8665179 -0 26.14132 -0 -11.70264 -7.456363 0.3286023 -0.009007337 -14.16911 -9.321573 -0 9.673402 -0 -3.406092 -4.134223 18.9631 0.6106621 -2.130493 8.903628 0.7140616 15.68797 -6.436492 -0.7025059 19.99893 3.522778 4.667552 -13.7934 0.3476498 1.60139 -27.39614 13.65768 85.79976 21.62953 -12.7748 -0 0 26.18484 -19.47854 11.0266 8.801025 2.413313 -25.82123 -10.67378 -94.78246 6.581959 35.76258 0 0 -4.820801 10.00853 11.57412 1.244075
-850.3873 114.7513 2592.965 -9.450045 -5.050244 -64.5026 0.7543209 22.10531 -1.765105 -0 30.86588 -0 -13.05846 -2.712319 1.697877 -1.713624 -12.40909 -11.87065 -0 11.99917 -0 -4.886521 -6.043046 20.26308 0.3047409 -2.032729 8.762829 0.5675327 15.4468 -6.231504 -0.83602 20.16108 3.973509 5.366277 -13.4331 0.1641397 2.267468 -26.80867 13.57004 85.00104 22.41616 -12.4595 -0 0 26.05043 -19.7747 10.6633 8.650961 2.785559 -25.82158 -10.73454 -95.01409 6.508415 35.18611 0 0 -3.549666 10.35456 11.33578 0.6258696
-856.0229 115.6463 2596.973 -10.12349 -5.955595 -64.72269 -0.316317 22.29464 -2.571741 -0 36.20519 -0 -14.76232 2.667197 3.174793 -3.21836 -10.35173 -13.91119 -0 14.64095 -0 -5.553581 -7.789927 21.19232 -0.148259 -1.876006 8.495374 0.3302086 15.10635 -5.917234 -0.9846627 20.42955 4.614292 6.299919 -13.03599 -0.004770545 3.138561 -25.94502 13.4023 83.98021 23.55466 -11.97958 -0 0 25.74656 -20.28286 10.17268 8.492241 3.330948 -25.75319 -10.77986 -95.23785 6.499106 34.17221 0 0 -1.88877 10.86078 11.04482 -0.3106629
-861.5271 116.9199 2600.816 -10.70151 -6.723773 -64.68805 -1.111747 20.9214 -3.224438 -0 41.79593 -0 -16.54071 8.011688 4.600693 -4.370153 -7.978896 -15.19504 -0 17.02047 -0 -5.393812 -9.194049 21.62133 -0.7684483 -1.644106 8.061442 -0.02239907 14.68029 -5.473257 -1.117078 20.82181 5.418654 7.425239 -12.6322 -0.1199216 4.213234 -24.79332 13.12716 82.74564 25.07058 -11.2594 -0 0 25.25733 -21.04307 9.595151 8.38776 4.054018 -25.54406 -10.7957 -95.36728 6.610251 32.60149 -0 0 0.06705934 11.52973 10.70955 -1.576521
-866.7517 118.4671 2604.44 -11.06536 -7.173288 -64.38049 -1.510803 17.69196 -3.722863 -0 46.79878 -0 -17.99536 12.39879 5.704121 -5.047588 -5.318729 -15.64261 -0 18.53571 -0 -4.652693 -10.25017 21.49058 -1.537028 -1.327283 7.430717 -0.500964 14.2194 -4.907849 -1.17778 21.34557 6.299975 8.612937 -12.28655 -0.1127336 5.41555 -23.38978 12.73255 81.41849 26.90825 -10.29514 -0 0 24.53335 -22.05188 9.010823 8.404486 4.925173 -25.13541 -10.77411 -95.24344 6.895672 30.34283 -0 0 1.969718 12.36435 10.38673 -3.166468
-871.6057 120.0813 2607.817 -11.17425 -7.207245 -63.85389 -1.463496 12.83543 -4.111413 -0 49.92372 -0 -18.69035 14.90594 6.160425 -5.218905 -2.464558 -15.4214 -0 18.75018 -0 -3.810149 -11.17872 20.86649 -2.355476 -0.9443658 6.622209 -1.072443 13.81171 -4.293303 -1.097266 21.96791 7.096183 9.629437 -12.10094 0.1022188 6.549015 -21.86351 12.24934 80.29102 28.86947 -9.261809 -0 0 23.50679 -23.19912 8.538188 8.570919 5.866992 -24.54361 -10.70817 -94.66609 7.354416 27.35205 -0 0 3.140291 13.36739 10.19779 -5.036393
